<svg xmlns="http://www.w3.org/2000/svg" xmlns:svg="http://www.w3.org/2000/svg" id="svg82" width="259.7" height="228.3" enable-background="new 0 0 962 228.1" version="1.1" viewBox="0 0 259.7 228.3"><metadata id="metadata88"/><path id="path32" d="m 0.1,60.5 h 9.2 c 6.7,0 10.8,3.4 10.8,9 0,3.6 -1.8,6.4 -4.8,7.8 l 9.5,13.4 H 17.5 L 9.5,78.5 H 6.2 V 90.7 H 0.1 Z m 6.1,5.2 v 7.5 h 3.5 c 2.6,0 4.1,-1.4 4.1,-3.8 0,-2.3 -1.5,-3.7 -4.1,-3.7 z"/><path id="path34" d="m 28.6,60.5 h 17.6 v 5.2 H 34.7 v 7 h 9.8 v 5.2 h -9.8 v 7.6 h 11.5 v 5.2 H 28.6 Z m 6,-2.6 4.9,-5.8 h 6.3 l -5.6,5.8 z"/><path id="path36" d="m 53.4,60.5 h 10 c 6.7,0 10.7,3.4 10.7,9 0,5.6 -4.1,9 -10.7,9 h -3.8 v 12.2 h -6.1 z m 6.1,5.2 v 7.5 h 4.1 c 2.6,0 4.1,-1.4 4.1,-3.8 0,-2.3 -1.6,-3.7 -4.1,-3.7 z"/><path id="path38" d="m 97,60.5 h 6.1 v 18.4 c 0,8 -4.7,12.7 -12.3,12.7 -7.6,0 -12.2,-4.8 -12.2,-12.7 V 60.5 h 6.1 v 18.9 c 0,4.1 2.3,6.4 6.1,6.4 3.8,0 6.1,-2.4 6.1,-6.4 V 60.5 Z"/><path id="path40" d="m 110.7,60.5 h 8.6 c 6.3,0 10.1,3.1 10.1,8.2 0,2.4 -1.1,4.5 -3.2,6 3.2,1.4 5,4 5,7.2 0,5.5 -4.3,8.9 -11.2,8.9 h -9.2 V 60.5 Z m 6.1,5.2 v 6.6 h 2.6 c 2.3,0 3.7,-1.2 3.7,-3.3 0,-2 -1.3,-3.3 -3.7,-3.3 z m 0,11.9 v 7.9 h 3.5 c 2.9,0 4.6,-1.5 4.6,-4 0,-2.5 -1.7,-3.9 -4.6,-3.9 z"/><path id="path42" d="m 137.5,60.5 h 6.1 v 24.7 h 11.5 v 5.6 h -17.6 z"/><path id="path44" d="m 160.5,60.5 h 6.1 v 30.3 h -6.1 z"/><path id="path46" d="m 206.8,92.8 c 0.6,0 1.5,-0.1 2.2,-0.3 v 5.2 c -1,0.4 -1.9,0.6 -3.2,0.6 -3.4,0 -6.5,-1.4 -9.5,-4 l -3.6,-3.2 c -1.3,0.3 -2.7,0.5 -4.1,0.5 -9.6,0 -16.1,-7.3 -16.1,-16 0,-8.6 6.5,-16 16.1,-16 9.5,0 16,7.3 16,16 0,5.1 -2.2,9.7 -6,12.6 l 1.8,1.7 c 2.4,2.1 4.5,2.9 6.4,2.9 z m -8.5,-17.2 c 0,-5.8 -4.1,-10.2 -9.7,-10.2 -5.7,0 -9.8,4.5 -9.8,10.2 0,5.8 4.1,10.2 9.8,10.2 5.6,0 9.7,-4.4 9.7,-10.2 z"/><path id="path48" d="m 228.4,60.5 h 6.1 v 18.4 c 0,8 -4.7,12.7 -12.3,12.7 -7.6,0 -12.2,-4.8 -12.2,-12.7 V 60.5 h 6.1 v 18.9 c 0,4.1 2.3,6.4 6.1,6.4 3.8,0 6.1,-2.4 6.1,-6.4 z"/><path id="path50" d="m 242.1,60.5 h 17.6 v 5.2 h -11.5 v 7 h 9.8 v 5.2 h -9.8 v 7.6 h 11.5 v 5.2 h -17.6 z"/><path id="path52" d="m 0.1,104.1 h 17.6 v 5.2 H 6.2 v 7 H 16 v 5.2 H 6.2 v 12.8 H 0.1 Z"/><path id="path54" d="m 23.1,104.1 h 9.2 c 6.7,0 10.8,3.4 10.8,9 0,3.6 -1.8,6.4 -4.8,7.8 l 9.5,13.4 h -7.3 l -8,-12.2 h -3.2 v 12.2 h -6.1 z m 6.2,5.2 v 7.6 h 3.5 c 2.6,0 4.1,-1.4 4.1,-3.8 0,-2.3 -1.5,-3.7 -4.1,-3.7 z"/><path id="path56" d="m 60.6,104.1 h 8 l 11.5,30.3 h -6.5 l -2.9,-7.9 H 58.5 l -2.9,7.9 h -6.5 z m 8.1,17.1 -4.1,-11.4 -4.2,11.4 z"/><path id="path58" d="m 84.7,104.1 h 7.9 l 13.5,21.7 v -21.7 h 6.1 v 30.3 h -7.9 L 90.8,112.7 v 21.7 h -6.1 z"/><path id="path60" d="m 142.1,125.3 4.8,3.7 c -2.3,3.2 -6,5.4 -10.4,6 l -3.8,6.3 h -5.4 l 3.8,-6.4 c -7.9,-1.4 -13.1,-8 -13.1,-15.7 0,-8.6 6.5,-16 16.1,-16 5.5,0 10,2.5 12.7,6.1 l -4.8,3.8 c -1.7,-2.5 -4.5,-4.1 -7.9,-4.1 -5.7,0 -9.8,4.5 -9.8,10.2 0,5.8 4.1,10.2 9.8,10.2 3.6,0 6.3,-1.6 8,-4.1 z"/><path id="path62" d="m 159.7,104.1 h 8 l 11.5,30.3 h -6.5 l -2.9,-7.9 h -12.1 l -2.9,7.9 h -6.5 z m 8.2,17.1 -4.1,-11.4 -4.1,11.4 z"/><path id="path64" d="m 183.9,104.1 h 6.1 v 30.3 h -6.1 z"/><path id="path66" d="m 200.2,126 c 1.8,2.3 4.2,3.7 6.7,3.7 2.4,0 3.9,-1.3 3.9,-3.5 0,-5.4 -13.8,-4.2 -13.8,-14.3 0,-4.8 3.9,-8.8 9.7,-8.8 4.5,0 8,2 10.6,5.1 l -4.5,4 c -1.8,-2.3 -3.8,-3.8 -6.1,-3.8 -2.1,0 -3.5,1.4 -3.5,3.2 0,5.4 13.8,4.1 13.8,14.4 -0.1,5.6 -4.5,9.1 -10,9.1 -5.1,0 -8.6,-1.9 -11.2,-5.1 z"/><path id="path68" d="m 223.5,104.1 h 17.6 v 5.2 h -11.5 v 7 h 9.8 v 5.2 h -9.8 v 7.6 h 11.5 v 5.2 h -17.6 z"/><path id="path70" d="m 98.5,217.9 c 0.8,0 1.5,0.6 1.2,2.2 l -3.8,0.9 c 0.7,-1.8 1.8,-3.1 2.6,-3.1 m 2.2,6.1 h -0.8 c -1,1.1 -2,2 -3,2 -1,0 -1.6,-0.6 -1.6,-2 0,-0.6 0.1,-1.2 0.2,-1.7 l 6.1,-2 c 1.2,-2.8 -0.2,-4.1 -1.9,-4.1 -2.9,0 -6.2,4.9 -6.2,9.1 0,1.9 0.9,3 2.3,3 1.7,0 3.4,-1.6 4.9,-4.3 m -1.3,-8.9 4.3,-4 v -0.5 h -2.3 l -2.7,4.5 z m -13.2,2.8 h 2 l -3.2,8.9 c -0.3,0.8 0.1,1.5 0.9,1.5 1.8,0 4.8,-1.8 5.9,-4.3 h -0.6 c -0.8,0.9 -2.4,2 -3.7,2.3 l 3,-8.3 h 3 l 0.4,-1.3 h -3 l 1.1,-3.2 h -1.2 l -2.1,3.2 -2.5,0.4 z m -2.8,-0.4 c 0.2,-0.8 -0.3,-1.3 -0.7,-1.3 -1.8,0 -3.9,1.6 -4.7,3.8 h 0.6 c 0.6,-0.8 1.6,-1.7 2.5,-1.9 l -3.4,8.8 c -0.3,0.8 0.3,1.3 0.7,1.3 1.7,0 3.7,-1.6 4.5,-3.8 h -0.6 c -0.6,0.8 -1.6,1.7 -2.5,1.9 z m 0.6,-4.4 c 0.8,0 1.5,-0.6 1.5,-1.5 0,-0.8 -0.7,-1.5 -1.5,-1.5 -0.8,0 -1.5,0.7 -1.5,1.5 0.1,0.8 0.7,1.5 1.5,1.5 m -19.5,13.6 c -0.4,1 0,1.6 1,1.6 0.6,0 0.9,-0.2 1.1,-0.8 l 2.4,-6.2 c 1.1,-1.3 3.3,-2.8 4.2,-2.8 0.6,0 0.6,0.5 0.1,1.3 l -3.6,6.9 c -0.4,0.7 0.1,1.5 0.9,1.5 1.8,0 3.9,-1.6 4.7,-3.8 h -0.6 c -0.6,0.8 -1.6,1.7 -2.5,1.9 l 3.1,-6.3 c 0.4,-0.8 0.6,-1.6 0.6,-2.2 0,-1 -0.6,-1.7 -1.6,-1.7 -1.5,0 -3.1,1.7 -4.9,3.9 v -1.6 c 0,-1.2 -0.4,-2.2 -1.4,-2.2 -0.7,0 -1.3,0.6 -1.9,1.4 v 0.2 c 1.2,-0.1 1.7,1.7 0.8,3.5 z m 0,-7.8 c 0.4,-1.4 0.2,-2.7 -0.9,-2.7 -1.3,0 -1.6,1 -3,3.9 v -1.6 c 0,-1.2 -0.4,-2.2 -1.4,-2.2 -1.2,0 -2.4,1.9 -3.2,3.8 h 0.6 c 0.6,-0.9 1.2,-1.4 1.6,-1.4 0.5,0 0.8,0.8 0,2.6 l -2.4,5.3 c -0.4,1 0,1.6 1,1.6 0.6,0 0.9,-0.2 1.1,-0.8 l 2.4,-6.2 c 0.7,-0.8 1.3,-1.5 2,-2.3 z m -13.7,-1 c 0.8,0 1.5,0.6 1.2,2.2 l -3.8,0.9 c 0.6,-1.8 1.8,-3.1 2.6,-3.1 m 2.1,6.1 h -0.8 c -1,1.1 -2,2 -3,2 -1,0 -1.6,-0.6 -1.6,-2 0,-0.6 0.1,-1.2 0.2,-1.7 l 6.1,-2 c 1.2,-2.8 -0.2,-4.1 -1.9,-4.1 -2.9,0 -6.2,4.9 -6.2,9.1 0,1.9 0.9,3 2.3,3 1.8,0 3.5,-1.6 4.9,-4.3 m -14.4,-6.1 h 2 l -3.2,8.9 c -0.3,0.8 0.1,1.5 0.9,1.5 1.8,0 4.8,-1.8 5.9,-4.3 h -0.6 c -0.8,0.9 -2.4,2 -3.7,2.3 l 3,-8.3 h 3 l 0.4,-1.3 h -3 l 1.1,-3.2 h -1.2 l -2.1,3.2 -2.5,0.4 z m -11.2,6.9 c 0,-2.7 3,-6.4 4.7,-6.4 0.4,0 0.7,0 1,0.1 l -1.8,4.7 c -1,1.2 -2.6,2.8 -3.3,2.8 -0.4,0 -0.6,-0.3 -0.6,-1.2 m 9.3,-9.1 -0.9,-0.1 -1,1 h -0.2 c -5.1,0 -9.4,5.7 -9.4,9.8 0,1.2 0.7,1.8 1.8,1.8 1.3,0 2.6,-1.9 4,-3.9 l -0.1,0.7 c -0.2,2 0.4,3.1 1.5,3.1 1.2,0 2.4,-1.9 3.2,-3.8 h -0.6 c -0.6,0.9 -1.2,1.4 -1.6,1.4 -0.5,0 -0.8,-0.8 0,-2.6 z m -10.8,3.2 c 0.4,-1.4 0.2,-2.7 -0.9,-2.7 -1.3,0 -1.6,1 -3,3.9 v -1.6 c 0,-1.2 -0.4,-2.2 -1.4,-2.2 -1.2,0 -2.4,1.9 -3.2,3.8 h 0.6 c 0.6,-0.9 1.2,-1.4 1.6,-1.4 0.5,0 0.8,0.8 0,2.6 l -2.4,5.3 c -0.4,1 0,1.6 1,1.6 0.6,0 0.9,-0.2 1.1,-0.8 l 2.4,-6.2 c 0.7,-0.8 1.3,-1.5 2,-2.3 z m -17,9 0.2,-0.7 C 6,226.6 5.7,226.6 6.8,223.4 L 8,220.1 h 3.3 c 1.5,0 1.5,0.6 1.3,2.2 h 0.8 l 2,-5.3 h -0.8 c -0.7,1.3 -1.3,2.2 -2.9,2.2 H 8.4 l 1.7,-4.7 c 0.5,-1.5 0.8,-1.8 2.8,-1.8 h 1.4 c 2.1,0 2.3,0.6 2.3,2.6 h 0.8 l 0.7,-3.6 H 6 l -0.2,0.7 c 2.4,0.5 2.6,0.7 1.5,3.8 l -2.7,7.3 c -1.1,3 -1.6,3.3 -4.3,3.8 L 0.1,228 Z"/><path id="path72" d="m 68.8,190.1 c 0.8,0 1.5,0.6 1.2,2.2 l -3.8,0.9 c 0.7,-1.7 1.8,-3.1 2.6,-3.1 m 2.2,6.2 h -0.8 c -1,1.1 -2,2 -3,2 -1,0 -1.6,-0.6 -1.6,-2 0,-0.6 0.1,-1.2 0.2,-1.7 l 6.1,-2 c 1.2,-2.8 -0.2,-4.1 -1.9,-4.1 -2.9,0 -6.2,4.9 -6.2,9.1 0,1.9 0.9,3 2.3,3 1.7,0 3.4,-1.7 4.9,-4.3 m -1.3,-8.9 4.3,-4 v -0.5 h -2.3 l -2.7,4.5 z m -13.2,2.8 h 2 l -3.2,8.9 c -0.3,0.8 0.1,1.5 0.9,1.5 1.8,0 4.8,-1.8 5.9,-4.3 h -0.6 c -0.8,0.9 -2.4,2 -3.7,2.3 l 3,-8.3 h 3 l 0.4,-1.3 h -3 l 1.1,-3.2 h -1.2 l -2.1,3.2 -2.5,0.4 z m -2.8,-0.4 c 0.2,-0.8 -0.3,-1.3 -0.7,-1.3 -1.8,0 -3.9,1.6 -4.7,3.8 h 0.6 c 0.6,-0.8 1.6,-1.7 2.5,-1.9 l -3.4,8.8 c -0.3,0.8 0.3,1.3 0.7,1.3 1.7,0 3.7,-1.6 4.5,-3.8 h -0.6 c -0.6,0.8 -1.6,1.7 -2.5,1.9 z m 0.6,-4.4 c 0.8,0 1.5,-0.6 1.5,-1.5 0,-0.8 -0.7,-1.5 -1.5,-1.5 -0.8,0 -1.5,0.7 -1.5,1.5 0.1,0.8 0.7,1.5 1.5,1.5 m -11.8,13.2 6.2,-16.2 -0.2,-0.2 -3.9,0.4 v 0.5 l 0.8,0.6 c 0.7,0.5 0.5,1 -0.2,2.7 l -4.8,12.7 c -0.4,0.7 0.1,1.5 0.9,1.5 1.8,0 3.7,-1.6 4.5,-3.8 h -0.6 c -0.6,0.8 -1.7,1.7 -2.7,1.8 m -11.7,-1.5 c 0,-2.7 3,-6.4 4.7,-6.4 0.4,0 0.7,0 1,0.1 l -1.8,4.7 c -1,1.2 -2.6,2.8 -3.3,2.8 -0.3,0 -0.6,-0.4 -0.6,-1.2 m 9.3,-9.1 -0.9,-0.1 -1,1 H 38 c -5.1,0 -9.4,5.7 -9.4,9.8 0,1.2 0.7,1.8 1.8,1.8 1.3,0 2.6,-1.9 4,-3.9 l -0.1,0.7 c -0.2,2 0.4,3.1 1.5,3.1 1.2,0 2.4,-1.9 3.2,-3.8 h -0.6 c -0.6,0.9 -1.2,1.4 -1.6,1.4 -0.5,0 -0.8,-0.8 0,-2.6 z m -22.6,14.7 c 0,-1.2 1.1,-1.9 2.8,-2.6 0.5,0.3 1.3,0.6 2.4,0.9 1.7,0.6 2.3,0.8 2.3,1.3 0,1.1 -1.8,1.9 -4.3,1.9 -2.1,0.1 -3.2,-0.4 -3.2,-1.5 m 4.6,-7.1 c -0.7,0 -1,-0.6 -1,-1.3 0,-2 1.1,-4.9 2.7,-4.9 0.7,0 1,0.6 1,1.3 0.1,1.9 -1,4.9 -2.7,4.9 m 4.8,6 c 0,-1.4 -1.3,-1.9 -3.3,-2.6 -1.8,-0.5 -2.6,-0.7 -2.6,-1.3 0,-0.5 0.4,-1 1.1,-1.4 2.9,-0.2 4.8,-2.8 4.8,-5 0,-0.5 -0.1,-0.9 -0.2,-1.2 h 2.5 l 0.4,-1.3 h -3.9 c -0.5,-0.3 -1,-0.4 -1.6,-0.4 -3.1,0 -5.1,2.7 -5.1,4.9 0,1.7 1.1,2.7 2.4,3 -1.4,0.6 -2.2,1.4 -2.2,2.3 0,0.5 0.2,0.9 0.6,1.2 -3.3,1 -4.6,2.1 -4.6,3.7 0,1.5 2,2.2 4.4,2.2 4,0 7.3,-2.2 7.3,-4.1 m -15.5,-9.5 c 1.5,0 1.5,0.6 1.3,2.2 h 0.8 l 2,-5.3 h -0.8 c -0.7,1.3 -1.3,2.2 -2.9,2.2 H 8.5 l 1.6,-4.5 c 0.5,-1.5 0.8,-1.8 2.8,-1.8 h 1.4 c 2.1,0 2.3,0.6 2.3,2.6 h 0.8 l 0.7,-3.6 H 6 l -0.2,0.7 c 2.4,0.5 2.6,0.7 1.5,3.8 l -2.7,7.3 c -1.1,3 -1.6,3.3 -4.3,3.8 l -0.2,0.7 h 13.6 l 2.4,-3.9 h -0.9 c -1.6,1.5 -3.5,2.9 -6.2,2.9 -3.6,0 -3.3,-0.2 -2.1,-3.5 l 1.3,-3.5 z m 1.8,-9.3 4.3,-3 v -0.5 h -2.6 l -2.4,3.4 h 0.7 z"/><path id="path74" d="m 67.4,162.4 c 0.8,0 1.5,0.6 1.2,2.2 l -3.8,0.9 c 0.6,-1.8 1.7,-3.1 2.6,-3.1 m 2.1,6.2 h -0.8 c -1,1.1 -2,2 -3,2 -1,0 -1.6,-0.6 -1.6,-2 0,-0.6 0.1,-1.2 0.2,-1.7 l 6.1,-2 c 1.2,-2.8 -0.2,-4.1 -1.9,-4.1 -2.9,0 -6.2,4.9 -6.2,9.1 0,1.9 0.9,3 2.3,3 1.8,-0.1 3.5,-1.7 4.9,-4.3 m -1.2,-9 4.3,-4 v -0.5 h -2.3 l -2.7,4.5 z m -12.7,2.9 h 1.6 l -3.2,8.9 c -0.3,0.8 0.1,1.5 0.9,1.5 1.8,0 4.8,-1.8 5.9,-4.3 h -0.6 c -0.8,0.9 -2.4,2 -3.7,2.3 l 3,-8.3 h 3 l 0.4,-1.3 h -3 l 1.1,-3.2 h -1.2 l -2.1,3.2 -2.1,0.4 z m -1.6,1 c 0.4,-1.4 0.2,-2.7 -0.9,-2.7 -1.3,0 -1.6,1 -3,3.9 v -1.6 c 0,-1.2 -0.4,-2.2 -1.4,-2.2 -1.2,0 -2.4,1.9 -3.2,3.8 H 46 c 0.6,-0.9 1.2,-1.4 1.6,-1.4 0.5,0 0.8,0.8 0,2.6 l -2.4,5.3 c -0.4,1 0,1.6 1,1.6 0.6,0 0.9,-0.2 1.1,-0.8 l 2.4,-6.2 c 0.7,-0.8 1.3,-1.5 2,-2.3 z m -13.6,-1.1 c 0.8,0 1.5,0.6 1.2,2.2 l -3.8,0.9 c 0.6,-1.8 1.7,-3.1 2.6,-3.1 m 2.1,6.2 h -0.8 c -1,1.1 -2,2 -3,2 -1,0 -1.6,-0.6 -1.6,-2 0,-0.6 0.1,-1.2 0.2,-1.7 l 6.1,-2 c 1.2,-2.8 -0.2,-4.1 -1.9,-4.1 -2.9,0 -6.2,4.9 -6.2,9.1 0,1.9 0.9,3 2.3,3 1.7,-0.1 3.5,-1.7 4.9,-4.3 M 27.4,171 c -0.6,0 -1.5,-0.6 -1.5,-1 0,-0.2 0.3,-0.8 0.6,-1.7 l 1,-2.6 c 1.1,-1.3 2.7,-2.6 3.6,-2.6 0.6,0 1,0.4 1,1.2 0,2.3 -2.2,6.7 -4.7,6.7 m 7,-7.8 c 0,-1.8 -0.7,-2.5 -1.9,-2.5 -1.6,0 -3,1.6 -4.5,3.6 l 3.7,-9.7 -0.2,-0.2 -3.9,0.4 v 0.5 l 0.8,0.6 c 0.7,0.5 0.5,1.1 -0.2,2.7 l -4,10.3 c -0.3,0.8 -0.6,1.6 -0.6,1.9 0,1.1 1.4,2.1 2.8,2.1 3,-0.1 8,-5.5 8,-9.7 m -12.1,-1.1 c 0.2,-0.8 -0.3,-1.3 -0.7,-1.3 -1.8,0 -3.9,1.6 -4.7,3.8 h 0.6 c 0.6,-0.8 1.6,-1.7 2.5,-1.9 l -3.4,8.8 c -0.3,0.8 0.3,1.3 0.7,1.3 1.7,0 3.7,-1.6 4.5,-3.8 h -0.6 c -0.6,0.8 -1.6,1.7 -2.5,1.9 z m 0.7,-4.5 c 0.8,0 1.5,-0.6 1.5,-1.5 0,-0.8 -0.7,-1.5 -1.5,-1.5 -0.8,0 -1.5,0.7 -1.5,1.5 0,0.9 0.6,1.5 1.5,1.5 m -9,-1.4 H 5.9 l -0.2,0.7 c 2.4,0.5 2.6,0.7 1.5,3.8 L 4.6,168 c -1.1,3 -1.6,3.3 -4.3,3.8 l -0.2,0.7 h 12.3 l 2.7,-4.7 h -0.9 c -1.5,1.7 -3.3,3.7 -6,3.7 -2.1,0 -2.3,-0.4 -1.2,-3.5 l 2.6,-7.3 c 1.1,-3 1.6,-3.3 4.3,-3.8 z"/><path id="path76" d="m 45.7,35.6 c 0.4,-0.4 0.9,-0.9 1.3,-1.4 0.8,-0.9 1.6,-1.8 2.5,-2.6 0.3,-0.3 0.6,-0.5 0.8,-0.7 0.1,-0.1 0.1,-0.2 0.2,-0.3 -0.4,0.2 -0.6,0.5 -1,0.6 -0.1,0 -0.2,-0.1 -0.1,-0.2 0.3,-0.2 0.5,-0.4 0.8,-0.6 0,0 0,0 -0.1,0 -0.1,0 -0.1,-0.1 -0.1,-0.2 -1,-0.2 -1.7,0.5 -2.4,1.1 -0.2,0.1 -0.3,-0.1 -0.4,-0.1 -1.1,0.4 -2,1.4 -3.1,1.8 0,-0.1 0,-0.1 0,-0.2 -0.5,0.2 -0.9,0.4 -1.4,0.5 -0.7,0.2 -1.3,0.1 -1.9,0.1 -0.9,0.1 -1.8,0.3 -2.8,0.5 h -0.1 c -0.5,0.1 -1,0.3 -1.4,0.6 0,0 0,0 -0.1,0 l -0.1,0.1 c -0.2,0.2 -0.3,0.3 -0.5,0.5 -0.5,0.2 -0.8,0.7 -1.3,1 h -0.1 c -0.4,0.4 -0.8,0.8 -1.2,1.2 0,0 -0.1,0 -0.2,0 -0.1,0 0,0 0,-0.1 0.1,-0.1 0.1,-0.2 0.2,-0.3 0.1,-0.1 0.1,-0.2 0.2,-0.4 0.1,-0.2 0.2,-0.3 0.3,-0.5 v -0.1 h -0.1 c 0.4,-0.4 0.8,-0.7 1.3,-1 -0.1,0 -0.1,0 -0.1,-0.1 0,-0.1 0.1,-0.1 0.1,-0.2 0,0 0,0 0,-0.1 0,0 0,0 -0.1,-0.1 -0.1,0.1 -0.3,0.2 -0.4,0.2 -0.2,0.2 -0.3,0.5 -0.6,0.5 h -0.1 -0.1 c 0,0 0,0 0,-0.1 0,0 0,0 0,-0.1 0,0 0,0 0,-0.1 0,0 0,-0.1 0.1,-0.1 0,0 0,0 0,-0.1 0,-0.1 0.1,-0.1 0.1,-0.2 v -0.1 l 0.1,-0.1 c 0,-0.1 0,-0.1 -0.1,-0.1 0.1,-0.2 0.3,-0.3 0.5,-0.5 0.3,-0.1 0.6,-0.3 0.9,-0.5 L 35.3,33 c -0.4,0.1 -0.8,0.3 -1.2,0.6 0,0 -0.1,0 -0.1,0.1 0,0 -0.1,0 -0.2,-0.1 0,0 0,0 0,-0.1 0.1,-0.2 0.3,-0.2 0.5,-0.4 0.1,0 0.2,0 0.2,0.1 2.4,-1.9 5.8,-1.4 8.6,-2.4 0.2,-0.2 0.5,-0.3 0.7,-0.5 0.4,-0.2 0.7,-0.5 1.1,-0.8 0.6,-0.5 1.1,-1 1.3,-1.7 0,-0.1 -0.1,-0.2 -0.1,-0.2 -1,1.1 -2.1,1.9 -3.3,2.5 -1.6,0.8 -3.3,0.7 -5,0.9 0.1,-0.2 0.2,-0.2 0.4,-0.2 0,-0.2 0.2,-0.3 0.3,-0.5 h 0.2 c 0.1,0 0.1,-0.2 0.2,-0.2 0.2,0 0.4,-0.1 0.3,-0.1 -0.2,-0.3 -0.7,0.2 -1.1,0 0.2,-0.2 0.1,-0.4 0.2,-0.5 h 0.3 c 0,-0.2 0.2,-0.3 0.2,-0.3 1.1,-0.7 2.2,-1.2 3.3,-1.8 -0.2,0 -0.4,0.2 -0.6,0.1 0.2,0 0,-0.2 0.2,-0.2 0.8,-0.2 1.5,-0.7 2.4,-1 -0.3,0 -0.5,0.2 -0.8,0 0.2,-0.1 0.2,-0.2 0.5,-0.2 0,-0.1 0,-0.2 0,-0.2 0,-0.1 0.1,-0.1 0.2,-0.1 -0.1,0 -0.2,-0.1 -0.2,-0.1 0.1,-0.2 0.3,-0.1 0.5,-0.2 -0.1,0 -0.2,0 -0.2,-0.1 0.2,-0.3 0.6,-0.4 1,-0.5 -0.1,-0.2 -0.3,0 -0.3,-0.2 0,-0.1 0.1,-0.1 0.2,-0.1 -0.1,0 -0.1,0 -0.2,0 -0.2,-0.1 -0.1,-0.2 -0.1,-0.3 0.5,-0.5 0.5,-1.2 0.7,-1.8 -0.1,0 -0.2,0 -0.2,-0.1 -0.8,0.8 -2,1.1 -3.1,1.4 -0.1,0 -0.3,0 -0.4,0 C 41.3,24 40.8,24 40.4,23.7 40.1,23.5 39.9,23.3 39.6,23.1 39,22.7 38.4,22.4 37.7,22.2 36,22.7 34,22.4 32,22.5 32.8,22 33.8,22 34.7,21.7 c 1.3,-0.4 2.5,-0.8 3.9,-0.8 -0.2,-0.1 -0.5,0 -0.8,0 -1.1,-0.1 -2.1,0.2 -3.3,0.5 -0.8,0.2 -1.4,0.5 -2.2,0.6 -0.5,0.2 -0.7,0.6 -1.2,0.5 v -0.2 c 0.8,-0.9 1.7,-1.8 2.9,-1.9 1.4,-0.2 2.7,0 4,0.2 1,0.1 1.9,0.3 2.9,0.5 0.4,0 0.5,0.6 0.8,0.7 0.5,0.2 0.9,0 1.4,0.3 0,-0.2 -0.1,-0.3 0,-0.5 0.3,-0.3 0.7,0.1 1,-0.1 0.6,-0.4 -0.5,-1.1 -0.8,-1.6 0,-0.1 0.1,-0.2 0.1,-0.2 0.6,0.5 1.1,1.1 1.8,1.5 0.4,0.2 1.3,0.4 1.1,-0.1 -0.4,-0.8 -1.1,-1.5 -1.7,-2.3 0,-0.1 0,-0.2 0,-0.3 -0.2,0 -0.2,-0.1 -0.2,-0.2 0,-0.1 0,-0.2 0,-0.3 C 44.1,17.8 44.2,17.5 44,17.3 43.8,16.9 43.9,16.4 43.8,15.9 43.7,15.4 43.6,15.1 43.5,14.6 43.3,13.3 43,12.2 42.8,11 42.6,9.6 43.6,8.4 44.3,7.1 44.8,6.2 45.4,5.3 46.4,4.7 46.6,3.8 47.2,3 47.8,2.3 48.4,1.6 49.4,1.1 50.1,0.8 51.2,0.3 52.1,0 52.1,0 H 0 v 40.2 h 36.9 c 1.4,-1 2.9,-1.5 4.9,-2.5 1,-0.3 3.1,-1.3 3.9,-2.1 z M 34,30.2 c -0.2,0 -0.5,0.1 -0.4,-0.1 0.1,-0.4 0.6,-0.4 0.9,-0.5 0.2,-0.1 0.4,-0.2 0.5,-0.2 0.2,0.2 0.4,0.2 0.5,0.3 -0.4,0.5 -1,0.3 -1.5,0.5 z M 22.4,28.5 c 0,0 -0.1,-0.1 -0.1,-0.2 1,-1.3 1.7,-2.5 2.4,-3.9 1,-0.5 1.8,-1.3 2.6,-2.1 1.3,-1.4 2.7,-2.6 4.3,-3.3 0.6,-0.2 1.4,-0.2 2,0.1 -0.2,0.3 -0.6,0.2 -0.9,0.5 -0.1,0 -0.2,0 -0.2,-0.1 0.1,-0.1 0.1,-0.2 0.1,-0.2 -0.8,0.8 -1.8,1.2 -2.4,2.2 -0.5,0.8 -0.8,1.7 -1.7,2 -0.3,0.1 0.1,-0.2 -0.1,-0.2 -2.5,1.4 -4.2,3.2 -6,5.2 z m 6.3,-5 c -0.1,0.2 -0.2,0.2 -0.2,0.3 -0.1,0.2 -0.2,0.2 -0.3,0.3 -0.1,0 -0.2,0 -0.2,-0.1 0.1,-0.3 0.3,-0.6 0.6,-0.7 0.1,0.1 0.1,0.1 0.1,0.2 z m 3.5,11.4 c 0,0.1 -0.1,0.2 -0.2,0.2 0.1,0 0.2,0.1 0.1,0.1 -0.2,0.2 -0.3,0.3 -0.6,0.4 h -0.1 c -0.1,0.1 -0.2,0.2 -0.3,0.3 -0.1,0.1 -0.5,0 -0.4,-0.1 0.2,-0.2 0.4,-0.4 0.6,-0.5 0.1,-0.1 0.2,-0.2 0.3,-0.3 l 0.2,-0.2 c 0.1,0 0.5,-0.1 0.4,0.1 z m -1.4,-0.6 c -0.3,0.2 -0.6,0.4 -0.9,0.6 -0.3,0.2 -0.7,0.3 -1,0.5 -0.3,0.2 -0.1,-0.1 -0.1,0 -0.3,0.2 -0.5,0.4 -0.8,0.6 l -0.1,0.1 -0.1,0.1 c -0.1,0.1 -0.1,0.1 -0.2,0.2 l -0.1,0.1 c 0,0 -0.2,0 -0.2,-0.1 0,-0.1 -0.1,0 -0.1,0.1 0,0 -0.1,0 -0.1,0.1 0,0 0,0 -0.1,0 0,0 0,0 -0.1,0 -0.1,0.1 -0.2,0.2 -0.3,0.2 -0.2,0.1 -0.3,0.3 -0.4,0.5 -0.1,0.2 0,0.1 -0.1,0.1 -0.1,0 0,0 -0.1,0 -0.1,0 0,-0.1 -0.1,-0.1 0.1,-0.1 0.2,-0.2 0.2,-0.3 l 0.1,-0.1 c 0,-0.1 0.1,-0.1 0.1,-0.2 0,0 0,0 0,-0.1 0.1,-0.1 0.2,-0.2 0.2,-0.3 0,-0.1 0.1,-0.1 0.1,-0.2 0,0 0.1,-0.1 0.1,-0.2 0,-0.1 0.1,-0.1 0.1,-0.2 v -0.1 -0.1 c 0,0 0,0 0,-0.1 0.1,-0.1 0.2,-0.3 0.3,-0.4 -0.1,0.1 -0.2,0.2 -0.3,0.2 -0.1,0.1 -0.2,0 -0.1,-0.1 0.1,0 0.1,-0.1 0.2,-0.2 0.1,-0.1 0.2,-0.3 0.4,-0.4 0.1,-0.1 0.2,-0.1 0.2,-0.2 0.1,-0.1 0.1,-0.1 0.2,-0.2 0.7,-0.7 1.9,-0.7 2.9,-1.1 0.4,-0.2 0.8,0.1 1.2,0 0.2,0 0.5,0 0.7,0.2 -0.4,0.3 -1,0.7 -1.7,1.1 z M 32.4,29 c -0.1,-0.1 0.2,0 0.3,-0.2 -0.2,0 -0.4,0 -0.6,0 -0.1,0 -0.1,-0.1 -0.1,-0.2 -0.4,0.1 -0.8,0.2 -1.2,0.3 -0.5,0.2 -1,0.5 -1.6,0.7 -0.8,0.3 -1.5,1 -2.4,1.3 -0.1,0 -0.1,-0.1 -0.1,-0.2 0.1,-0.2 0.4,-0.3 0.5,-0.5 0,-0.1 0,-0.2 -0.1,-0.2 0.6,-0.8 1.4,-1.3 2.2,-2 0,-0.1 0,-0.2 0,-0.2 0.2,-0.3 0.6,-0.5 0.8,-0.8 0.1,-0.2 0.4,-0.5 0.8,-0.7 -0.1,-0.1 -0.2,-0.1 -0.2,-0.2 -0.3,0 -0.6,0.2 -0.9,-0.1 0.1,-0.1 0.3,-0.2 0.5,-0.3 -0.1,0 -0.1,0 -0.2,-0.1 -0.1,-0.2 0.1,-0.3 0.4,-0.4 0.3,-0.1 0.7,-0.1 0.9,-0.3 -0.5,-0.1 -1.1,0.2 -1.7,-0.2 0.4,-1 1,-1.8 1.9,-2.3 0.1,0 0.2,0 0.2,0.1 0,0.4 -0.2,0.7 -0.6,0.8 0.6,0.2 1.2,0.2 1.8,0.5 -0.1,0.2 -0.2,0.1 -0.3,0.1 0.4,0.2 0.8,0.1 1.2,0.4 -0.2,0.2 -0.5,0 -0.7,0 2.4,0.7 4.9,1.2 6.8,2.7 -1.7,0.8 -3.4,1.2 -5.2,1.6 -0.2,0 -0.4,0 -0.6,-0.1 0,0.1 0,0.2 -0.1,0.2 -0.3,0 -0.5,0 -0.8,0.2 -0.2,0.2 -0.7,0.3 -0.9,0.1 z" style="fill:#000091"/><path id="path78" d="M 110.5,0.2 H 67.3 c 0,0 0.1,0 0.4,0.2 0.4,0.2 0.8,0.4 1.1,0.6 0.6,0.3 1.1,0.7 1.4,1.2 0.2,0.2 0.4,0.7 0.2,1 -0.2,0.4 -0.2,1 -0.6,1.1 -0.5,0.2 -1.1,0.2 -1.6,0.2 -0.3,0 -0.6,-0.1 -0.9,-0.2 1.1,0.5 2.2,1 3,2 0.1,0.2 0.4,0.2 0.7,0.2 V 6.8 C 70.8,7 70.7,7 70.8,7.3 H 71 c 0.4,-0.2 0.3,-0.9 0.8,-0.7 0.4,0.2 0.5,0.8 0.3,1.1 -0.3,0.3 -0.6,0.5 -0.9,0.8 -0.1,0.2 -0.1,0.4 0,0.5 0.2,0.3 0.3,0.6 0.4,0.9 0.2,0.5 0.3,1.1 0.5,1.7 0.3,1.1 0.6,2.3 0.5,3.4 0,0.6 -0.3,1.1 -0.1,1.7 0.2,0.6 0.5,1.1 0.8,1.6 0.3,0.5 0.6,0.8 0.8,1.2 0.5,0.8 1.3,1.5 0.9,2.4 -0.2,0.5 -1.1,0.5 -1.6,0.8 -0.5,0.4 -0.1,1 0.2,1.4 0.4,0.7 -0.5,1.1 -1,1.4 0.2,0.2 0.5,0.2 0.5,0.3 0.1,0.4 0.5,0.6 0.2,1 -0.3,0.5 -1.2,0.7 -0.8,1.4 0.3,0.5 0.1,1.1 -0.1,1.7 -0.2,0.7 -0.8,1 -1.4,1.1 -0.5,0.2 -1,0.2 -1.4,0.1 -0.2,-0.1 -0.3,-0.2 -0.5,-0.2 -1.3,-0.2 -2.6,-0.5 -3.9,-0.5 -0.4,0.1 -0.8,0.2 -1.1,0.3 -0.3,0.3 -0.6,0.5 -0.9,0.8 -0.1,0.1 -0.1,0.1 -0.2,0.2 l -0.1,0.1 c 0,0 0,0.1 -0.1,0.1 -0.2,0.3 -0.4,0.6 -0.6,0.9 v 0.1 c 0,0 0,0.1 -0.1,0.1 -0.2,0.5 -0.4,0.9 -0.6,1.4 -0.5,1.7 -0.3,3.2 0.1,3.6 0.1,0.1 2.5,0.8 4.2,1.6 0.8,0.3 1.3,0.6 1.8,0.9 H 110 V 0.2 Z" style="fill:#e1000f"/><path id="path80" d="m 69.8,14.9 c 0.3,0.1 0.8,0.1 0.8,0.2 -0.2,0.6 -1.1,0.8 -1.5,1.4 h -0.2 c -0.2,0.2 -0.2,0.5 -0.4,0.5 -0.2,-0.1 -0.5,0 -0.7,0.1 0.3,0.3 0.7,0.5 1.1,0.5 0.1,0 0.2,0.2 0.2,0.3 0,0 0.1,0 0.2,-0.1 0.1,0 0.2,0 0.2,0.1 v 0.3 c -0.2,0.3 -0.6,0.2 -0.9,0.2 0.6,0.2 1.2,0.2 1.7,0 0.5,-0.2 0,-0.9 0.3,-1.3 -0.2,0 0,-0.2 -0.2,-0.2 0.2,-0.2 0.3,-0.4 0.5,-0.5 0.2,0 0.4,-0.1 0.5,-0.2 0,-0.2 -0.3,-0.2 -0.2,-0.4 0.5,-0.3 0.8,-0.8 0.7,-1.2 -0.1,-0.2 -0.7,-0.2 -1.1,-0.4 -0.4,-0.2 -0.8,0 -1.3,0.1 -0.4,0 -0.8,0.2 -1.1,0.3 -0.5,0.2 -1,0.5 -1.4,0.8 0.5,-0.2 1.1,-0.3 1.7,-0.5 0.3,0 0.7,-0.2 1.1,0 z" style="fill:#9d9d9c"/></svg>